<svg viewBox="0 0 900 250" xmlns="http://www.w3.org/2000/svg" font-family="Georgia, 'Times New Roman', serif">
<rect x="12" y="26" width="276" height="188" rx="16" fill="#ECDFCD" stroke="#A8492A" stroke-width="2"/>
<g transform="translate(128,60) scale(1.85)" fill="none" stroke="#A8492A" stroke-width="1.7" stroke-linecap="round" stroke-linejoin="round"><path d="m12.83 2.18a2 2 0 0 0-1.66 0L2.6 6.08a1 1 0 0 0 0 1.83l8.58 3.91a2 2 0 0 0 1.66 0l8.58-3.9a1 1 0 0 0 0-1.83Z"/><path d="m22 17.65-9.17 4.16a2 2 0 0 1-1.66 0L2 17.65"/><path d="m22 12.65-9.17 4.16a2 2 0 0 1-1.66 0L2 12.65"/></g>
<text x="150" y="140" text-anchor="middle" font-size="16" font-weight="bold" fill="#A8492A">Construire en petits cycles</text>
<text x="150" y="166" text-anchor="middle" font-size="13" font-style="italic" fill="#4A3B2E">chaque ajout : sa propre</text>
<text x="150" y="185" text-anchor="middle" font-size="13" font-style="italic" fill="#4A3B2E">Découverte, Alpha, Bêta</text>
<rect x="312" y="26" width="276" height="188" rx="16" fill="#ECDFCD" stroke="#A8492A" stroke-width="2"/>
<g transform="translate(428,60) scale(1.85)" fill="none" stroke="#A8492A" stroke-width="1.7" stroke-linecap="round" stroke-linejoin="round"><line x1="3" x2="21" y1="22" y2="22"/><line x1="6" x2="6" y1="18" y2="11"/><line x1="10" x2="10" y1="18" y2="11"/><line x1="14" x2="14" y1="18" y2="11"/><line x1="18" x2="18" y1="18" y2="11"/><polygon points="12 2 20 7 4 7"/></g>
<text x="450" y="140" text-anchor="middle" font-size="16" font-weight="bold" fill="#A8492A">Les points de contrôle reviennent</text>
<text x="450" y="166" text-anchor="middle" font-size="13" font-style="italic" fill="#4A3B2E">vie privée, automatisation,</text>
<text x="450" y="185" text-anchor="middle" font-size="13" font-style="italic" fill="#4A3B2E">architecture, approvisionnement</text>
<rect x="612" y="26" width="276" height="188" rx="16" fill="#ECDFCD" stroke="#A8492A" stroke-width="2"/>
<g transform="translate(728,60) scale(1.85)" fill="none" stroke="#A8492A" stroke-width="1.7" stroke-linecap="round" stroke-linejoin="round"><path d="M16 7h6v6"/><path d="m22 7-8.5 8.5-5-5L2 17"/></g>
<text x="750" y="140" text-anchor="middle" font-size="16" font-weight="bold" fill="#A8492A">Faire croître les utilisateurs</text>
<text x="750" y="166" text-anchor="middle" font-size="13" font-style="italic" fill="#4A3B2E">adoption, soutien et</text>
<text x="750" y="185" text-anchor="middle" font-size="13" font-style="italic" fill="#4A3B2E">échelle montent ensemble</text>
</svg>
