<svg xmlns="http://www.w3.org/2000/svg" viewBox="410 160 625 128" font-family="Georgia, 'Times New Roman', serif">
<!-- Live island (cx 540) -->
<ellipse cx="540" cy="250" rx="130" ry="13" fill="#EDE6D6"/>
<g stroke="#DBD1BF" stroke-width="1.8" fill="none" stroke-linecap="round"><path d="M485,264 q14,-6 28,0 t28,0 t28,0"/><path d="M515,274 q14,-6 28,0 t28,0"/></g>
<path d="M422,248 C422,206 472,178 540,176 C608,178 658,206 658,248 Z" fill="#E9E0CF" stroke="#A8492A" stroke-width="2"/>
<circle cx="509" cy="205" r="5" fill="none" stroke="#A8492A" stroke-width="2.2"/><circle cx="519" cy="205" r="5" fill="none" stroke="#A8492A" stroke-width="2.2"/>
<text x="533" y="212" text-anchor="start" font-size="23" font-weight="bold" fill="#A8492A">Live</text>
<text x="540" y="234" text-anchor="middle" font-size="13.5" font-style="italic" fill="#8C7B63">run and improve it</text>
<!-- Sunset island (cx 905) -->
<ellipse cx="905" cy="250" rx="130" ry="13" fill="#EDE6D6"/>
<g stroke="#DBD1BF" stroke-width="1.8" fill="none" stroke-linecap="round"><path d="M850,264 q14,-6 28,0 t28,0 t28,0"/><path d="M880,274 q14,-6 28,0 t28,0"/></g>
<path d="M787,248 C787,206 837,178 905,176 C973,178 1023,206 1023,248 Z" fill="#E9E0CF" stroke="#A8492A" stroke-width="2"/>
<line x1="863" y1="198" x2="863" y2="207" stroke="#A8492A" stroke-width="2.4"/><path d="M858,203 L863,211 L868,203 Z" fill="#A8492A"/><line x1="855" y1="215" x2="871" y2="215" stroke="#A8492A" stroke-width="2.4" stroke-linecap="round"/>
<text x="883" y="212" text-anchor="start" font-size="23" font-weight="bold" fill="#A8492A">Sunset</text>
<text x="905" y="234" text-anchor="middle" font-size="13.5" font-style="italic" fill="#8C7B63">retire it well</text>
<!-- Bridge: Plan the exit (Live -> Sunset) -->
<path d="M651,216 Q722,196 794,216" fill="none" stroke="#A8492A" stroke-width="3.2"/>
<path d="M657,207 Q722,189 788,207" fill="none" stroke="#A8492A" stroke-width="2"/>
<line x1="681" y1="199" x2="681" y2="213" stroke="#A8492A" stroke-width="1.8"/>
<line x1="722" y1="193" x2="722" y2="209" stroke="#A8492A" stroke-width="1.8"/>
<line x1="763" y1="199" x2="763" y2="213" stroke="#A8492A" stroke-width="1.8"/>
<text x="722" y="176" text-anchor="middle" font-size="15.5" font-weight="bold" fill="#4A3B2E" letter-spacing="1">Plan the exit</text>
</svg>
