<svg viewBox="0 0 900 250" xmlns="http://www.w3.org/2000/svg" font-family="Georgia, 'Times New Roman', serif">
<rect x="22" y="26" width="256" height="188" rx="16" fill="#ECDFCD" stroke="#A8492A" stroke-width="2"/>
<g transform="translate(128,60) scale(1.85)" fill="none" stroke="#A8492A" stroke-width="1.7" stroke-linecap="round" stroke-linejoin="round"><circle cx="12" cy="12" r="9"/><circle cx="12" cy="12" r="5"/><circle cx="12" cy="12" r="1.5"/></g>
<text x="150" y="140" text-anchor="middle" font-size="18" font-weight="bold" fill="#A8492A">Test the riskiest idea</text>
<text x="150" y="166" text-anchor="middle" font-size="13" font-style="italic" fill="#4A3B2E">first, before committing</text>
<rect x="322" y="26" width="256" height="188" rx="16" fill="#ECDFCD" stroke="#A8492A" stroke-width="2"/>
<g transform="translate(428,60) scale(1.85)" fill="none" stroke="#A8492A" stroke-width="1.7" stroke-linecap="round" stroke-linejoin="round"><path d="M12 20h9"/><path d="M16.5 3.5a2.1 2.1 0 0 1 3 3L7 19l-4 1 1-4Z"/></g>
<text x="450" y="140" text-anchor="middle" font-size="18" font-weight="bold" fill="#A8492A">Prototype cheaply</text>
<text x="450" y="166" text-anchor="middle" font-size="13" font-style="italic" fill="#4A3B2E">and try more than</text>
<text x="450" y="185" text-anchor="middle" font-size="13" font-style="italic" fill="#4A3B2E">one approach</text>
<rect x="622" y="26" width="256" height="188" rx="16" fill="#ECDFCD" stroke="#A8492A" stroke-width="2"/>
<g transform="translate(728,60) scale(1.85)" fill="none" stroke="#A8492A" stroke-width="1.7" stroke-linecap="round" stroke-linejoin="round"><path d="M3 6h18"/><path d="M8 6V4h8v2"/><path d="M6 6l1 14h10l1-14"/></g>
<text x="750" y="140" text-anchor="middle" font-size="18" font-weight="bold" fill="#A8492A">Throw it away</text>
<text x="750" y="166" text-anchor="middle" font-size="13" font-style="italic" fill="#4A3B2E">the code, and most</text>
<text x="750" y="185" text-anchor="middle" font-size="13" font-style="italic" fill="#4A3B2E">of the ideas</text>
</svg>