<svg viewBox="0 0 900 250" xmlns="http://www.w3.org/2000/svg" font-family="Georgia, 'Times New Roman', serif">
<rect x="22" y="26" width="256" height="188" rx="16" fill="#ECDFCD" stroke="#A8492A" stroke-width="2"/>
<g transform="translate(128,60) scale(1.85)" fill="none" stroke="#A8492A" stroke-width="1.7" stroke-linecap="round" stroke-linejoin="round"><path d="M4 4h11l5 5v11H4z"/><path d="M15 4v5h5"/><path d="M8 15c2-2 4 2 6 0"/></g>
<text x="150" y="140" text-anchor="middle" font-size="18" font-weight="bold" fill="#A8492A">Sign the contract</text>
<text x="150" y="166" text-anchor="middle" font-size="13" font-style="italic" fill="#4A3B2E">before any building starts.</text>
<text x="150" y="185" text-anchor="middle" font-size="13" font-style="italic" fill="#4A3B2E">Your exit is won here</text>
<rect x="322" y="26" width="256" height="188" rx="16" fill="#ECDFCD" stroke="#A8492A" stroke-width="2"/>
<g transform="translate(428,60) scale(1.85)" fill="none" stroke="#A8492A" stroke-width="1.7" stroke-linecap="round" stroke-linejoin="round"><path d="M14.7 6.3a1 1 0 0 0 0 1.4l1.6 1.6a1 1 0 0 0 1.4 0l3.77-3.77a6 6 0 0 1-7.94 7.94l-6.91 6.91a2.12 2.12 0 0 1-3-3l6.91-6.91a6 6 0 0 1 7.94-7.94l-3.76 3.76z"/></g>
<text x="450" y="140" text-anchor="middle" font-size="18" font-weight="bold" fill="#A8492A">Build the real service</text>
<text x="450" y="166" text-anchor="middle" font-size="13" font-style="italic" fill="#4A3B2E">the smallest version that</text>
<text x="450" y="185" text-anchor="middle" font-size="13" font-style="italic" fill="#4A3B2E">works end to end</text>
<rect x="622" y="26" width="256" height="188" rx="16" fill="#ECDFCD" stroke="#A8492A" stroke-width="2"/>
<g transform="translate(728,60) scale(1.85)" fill="none" stroke="#A8492A" stroke-width="1.7" stroke-linecap="round" stroke-linejoin="round"><path d="M16 21v-2a4 4 0 0 0-4-4H6a4 4 0 0 0-4 4v2"/><circle cx="9" cy="7" r="4"/><path d="M22 21v-2a4 4 0 0 0-3-3.87"/><path d="M16 3.13a4 4 0 0 1 0 7.75"/></g>
<text x="750" y="140" text-anchor="middle" font-size="18" font-weight="bold" fill="#A8492A">Test it with real people</text>
<text x="750" y="166" text-anchor="middle" font-size="13" font-style="italic" fill="#4A3B2E">invite a few,</text>
<text x="750" y="185" text-anchor="middle" font-size="13" font-style="italic" fill="#4A3B2E">then open it to everyone</text>
</svg>