<svg viewBox="0 0 900 250" xmlns="http://www.w3.org/2000/svg" font-family="Georgia, 'Times New Roman', serif">
<rect x="22" y="26" width="256" height="188" rx="16" fill="#ECDFCD" stroke="#A8492A" stroke-width="2"/>
<g transform="translate(128,60) scale(1.85)" fill="none" stroke="#A8492A" stroke-width="1.7" stroke-linecap="round" stroke-linejoin="round"><circle cx="11" cy="11" r="7"/><line x1="16" y1="16" x2="21" y2="21"/></g>
<text x="150" y="140" text-anchor="middle" font-size="18" font-weight="bold" fill="#A8492A">Understand the problem</text>
<text x="150" y="166" text-anchor="middle" font-size="13" font-style="italic" fill="#4A3B2E">from the people</text>
<text x="150" y="185" text-anchor="middle" font-size="13" font-style="italic" fill="#4A3B2E">living with it</text>
<rect x="322" y="26" width="256" height="188" rx="16" fill="#ECDFCD" stroke="#A8492A" stroke-width="2"/>
<g transform="translate(428,60) scale(1.85)" fill="none" stroke="#A8492A" stroke-width="1.7" stroke-linecap="round" stroke-linejoin="round"><circle cx="6" cy="6" r="2.5"/><circle cx="18" cy="6" r="2.5"/><circle cx="12" cy="19" r="2.5"/><path d="M6 8.5v3a3 3 0 0 0 3 3h6a3 3 0 0 0 3-3v-3"/></g>
<text x="450" y="140" text-anchor="middle" font-size="18" font-weight="bold" fill="#A8492A">Decide</text>
<text x="450" y="166" text-anchor="middle" font-size="13" font-style="italic" fill="#4A3B2E">reuse, buy, build, or stop</text>
<rect x="622" y="26" width="256" height="188" rx="16" fill="#ECDFCD" stroke="#A8492A" stroke-width="2"/>
<g transform="translate(728,60) scale(1.85)" fill="none" stroke="#A8492A" stroke-width="1.7" stroke-linecap="round" stroke-linejoin="round"><circle cx="12" cy="12" r="9"/><circle cx="12" cy="12" r="5"/><circle cx="12" cy="12" r="1.5"/></g>
<text x="750" y="140" text-anchor="middle" font-size="18" font-weight="bold" fill="#A8492A">Stopping here</text>
<text x="750" y="166" text-anchor="middle" font-size="13" font-style="italic" fill="#4A3B2E">is a good outcome</text>
</svg>