<svg viewBox="0 0 1160 346" xmlns="http://www.w3.org/2000/svg" font-family="Georgia, 'Times New Roman', serif">
<rect x="286" y="58" width="550" height="228" rx="10" fill="#F7EFE4"/>
<text x="561" y="48" text-anchor="middle" font-size="14" font-style="italic" fill="#8C7B63">they run at the same time</text>
<text x="24" y="118" font-size="17" font-weight="bold" fill="#4A3B2E">New service</text>
<text x="24" y="140" font-size="11.5" letter-spacing="2" fill="#8C7B63">CREATE, THEN LIVE</text>
<text x="24" y="248" font-size="17" font-weight="bold" fill="#4A3B2E">Old service</text>
<text x="24" y="270" font-size="11.5" letter-spacing="2" fill="#8C7B63">SUNSET</text>
<rect x="286" y="86" width="130" height="66" rx="12" fill="#ECDFCD" stroke="#A8492A" stroke-width="2"/>
<text x="351.0" y="126" text-anchor="middle" font-size="16" font-weight="bold" fill="#A8492A">Discovery</text>
<rect x="422" y="86" width="130" height="66" rx="12" fill="#ECDFCD" stroke="#A8492A" stroke-width="2"/>
<text x="487.0" y="126" text-anchor="middle" font-size="16" font-weight="bold" fill="#A8492A">Alpha</text>
<rect x="558" y="86" width="142" height="66" rx="12" fill="#ECDFCD" stroke="#A8492A" stroke-width="2"/>
<text x="629.0" y="126" text-anchor="middle" font-size="16" font-weight="bold" fill="#A8492A">Beta</text>
<rect x="718" y="86" width="228" height="66" rx="12" fill="#ECDFCD" stroke="#A8492A" stroke-width="2.6"/>
<text x="832.0" y="118" text-anchor="middle" font-size="16" font-weight="bold" fill="#A8492A">Live</text>
<text x="832.0" y="138" text-anchor="middle" font-size="12" font-style="italic" fill="#8C7B63">Stabilization</text>
<line x1="706" y1="72" x2="706" y2="292" stroke="#A8492A" stroke-width="2" stroke-dasharray="6 5"/>
<text x="706" y="66" text-anchor="middle" font-size="13" font-weight="bold" fill="#A8492A">launch</text>
<rect x="150" y="212" width="130" height="60" rx="12" fill="#E7DCC6" stroke="#C9B99B" stroke-width="1.6"/>
<text x="215.0" y="248" text-anchor="middle" font-size="14" fill="#4A3B2E">Assess</text>
<rect x="286" y="212" width="130" height="60" rx="12" fill="#E7DCC6" stroke="#C9B99B" stroke-width="1.6"/>
<text x="351.0" y="248" text-anchor="middle" font-size="14" fill="#4A3B2E">Decide</text>
<rect x="422" y="212" width="130" height="60" rx="12" fill="#E7DCC6" stroke="#C9B99B" stroke-width="1.6"/>
<text x="487.0" y="248" text-anchor="middle" font-size="14" fill="#4A3B2E">Plan</text>
<rect x="558" y="212" width="130" height="60" rx="12" fill="#E7DCC6" stroke="#C9B99B" stroke-width="1.6"/>
<text x="623.0" y="248" text-anchor="middle" font-size="14" fill="#4A3B2E">Buy / build</text>
<rect x="694" y="212" width="142" height="60" rx="12" fill="#ECDFCD" stroke="#C9B99B" stroke-width="1.6"/>
<text x="765.0" y="248" text-anchor="middle" font-size="14" fill="#4A3B2E">Migrate</text>
<path d="M780,208 L780,158" stroke="#A8492A" stroke-width="2.4" fill="none"/>
<path d="M774,162 L780,150 L786,162 Z" fill="#A8492A"/>
<text x="792" y="186" font-size="12.5" fill="#A8492A">users and data move across</text>
<path d="M872,232 L888,250 M888,232 L872,250" stroke="#A8492A" stroke-width="2.6" stroke-linecap="round"/>
<text x="900" y="240" font-size="12.5" font-weight="bold" fill="#A8492A">switched off</text>
<text x="900" y="258" font-size="11.5" font-style="italic" fill="#8C7B63">once the new one is live</text>
<text x="580.0" y="330" text-anchor="middle" font-size="14" font-style="italic" fill="#8C7B63">The old service keeps running through the whole of Beta. It is switched off only once the new service is live.</text>
</svg>